<?xml version="1.0" standalone="no"?>
<!DOCTYPE svg PUBLIC "-//W3C//DTD SVG 20010904//EN"
 "http://www.w3.org/TR/2001/REC-SVG-20010904/DTD/svg10.dtd">
<svg version="1.0" xmlns="http://www.w3.org/2000/svg"
 width="900.000000pt" height="558.000000pt" viewBox="0 0 900.000000 558.000000"
 preserveAspectRatio="xMidYMid meet">
<metadata>
Created by potrace 1.10, written by Peter Selinger 2001-2011
</metadata>
<g transform="translate(0.000000,558.000000) scale(0.100000,-0.100000)"
fill="#000000" stroke="#ff4078" stroke-width="42px">
<path d="M1282 5560 c-10 -16 -22 -20 -50 -19 -20 2 -46 -2 -57 -8 -11 -6 -49
-13 -85 -17 -36 -4 -92 -11 -125 -16 -33 -5 -118 -14 -190 -20 -353 -30 -446
-46 -538 -89 -36 -17 -73 -31 -82 -31 -9 0 -13 -4 -10 -10 9 -14 35 -12 69 5
15 8 37 15 48 15 11 0 29 5 41 12 12 6 51 12 87 14 206 8 495 26 555 35 304
42 396 50 746 58 202 4 371 11 377 15 11 6 120 -11 220 -34 49 -12 150 -58
268 -123 44 -25 105 -53 135 -62 85 -28 125 -43 224 -85 105 -45 270 -131 285
-150 3 -3 23 -17 45 -30 22 -13 45 -28 50 -32 28 -23 175 -127 208 -147 20
-12 37 -27 37 -32 0 -5 7 -9 15 -9 30 0 14 23 -74 109 -163 160 -433 320 -680
405 -57 20 -170 69 -250 109 -80 41 -162 80 -181 87 -41 16 -82 49 -74 61 3 5
-221 9 -498 9 -496 0 -503 0 -516 -20z"/>
<path d="M6865 5565 c-6 -9 -61 -31 -123 -50 -62 -18 -168 -60 -235 -94 -67
-33 -192 -83 -277 -111 -319 -107 -611 -277 -777 -453 -75 -79 -56 -77 67 6
51 34 100 67 109 72 45 29 113 73 175 113 87 56 177 100 291 142 50 18 95 37
100 41 6 3 26 10 45 14 19 4 40 11 45 15 6 4 26 10 45 13 33 5 85 25 120 46 8
5 35 19 60 32 25 12 65 32 90 44 72 37 119 52 218 71 88 17 104 17 335 0 133
-9 298 -17 367 -17 69 0 150 -5 180 -10 30 -5 87 -12 125 -15 39 -3 79 -11 90
-18 14 -8 126 -11 370 -12 251 0 356 -4 372 -12 12 -7 35 -12 51 -12 16 0 35
-7 42 -15 13 -15 60 -21 60 -7 0 4 -12 13 -27 19 -16 6 -55 24 -88 38 -58 25
-70 27 -330 35 -288 10 -316 12 -620 60 -33 5 -145 12 -250 15 -104 4 -217 11
-250 17 -33 6 -86 13 -118 15 -38 3 -60 10 -64 19 -7 19 -69 18 -77 -1 -3 -8
-12 -15 -21 -15 -9 0 -18 7 -21 15 -8 20 -66 20 -79 0z"/>
<path d="M340 5298 c-40 -4 -84 -15 -96 -23 -13 -8 -32 -15 -43 -15 -11 0 -23
-5 -27 -11 -5 -8 6 -9 37 -5 103 16 174 16 344 2 99 -9 236 -20 305 -26 363
-30 546 -58 690 -107 79 -27 219 -93 286 -135 79 -50 124 -56 219 -28 220 64
399 51 497 -38 87 -78 17 -151 -82 -86 -37 25 -43 26 -99 16 -138 -25 -275
-114 -457 -297 -104 -106 -152 -170 -200 -267 -50 -103 -8 -80 76 42 37 53
252 269 310 311 18 13 46 36 62 50 17 15 40 31 51 37 141 67 179 82 206 82 21
0 31 -5 31 -15 0 -8 14 -30 31 -50 25 -28 38 -35 67 -35 91 0 177 146 127 217
-8 11 -41 35 -72 53 -32 18 -65 38 -73 45 -40 32 -127 47 -252 42 -134 -5
-210 -22 -270 -62 -44 -29 -61 -31 -79 -9 -19 24 -136 97 -199 126 -126 57
-152 68 -166 68 -8 0 -24 5 -35 10 -21 12 -65 22 -227 50 -106 19 -167 25
-352 35 -41 2 -124 9 -185 14 -151 14 -336 17 -425 9z"/>
<path d="M8465 5290 c-195 -16 -234 -20 -312 -36 -43 -9 -136 -20 -208 -25
-182 -12 -254 -19 -300 -31 -22 -5 -65 -13 -95 -18 -30 -4 -89 -19 -130 -33
-41 -13 -90 -28 -107 -32 -18 -3 -35 -11 -38 -16 -4 -5 -13 -9 -21 -9 -28 0
-161 -71 -190 -101 -35 -37 -46 -36 -94 2 -36 29 -59 38 -155 59 -98 22 -266
-6 -330 -54 -19 -14 -41 -26 -49 -26 -8 0 -33 -17 -56 -38 -61 -58 -55 -117
20 -192 33 -33 47 -40 78 -40 38 0 82 33 82 62 0 21 21 38 47 38 34 0 182 -81
233 -128 141 -128 360 -369 360 -396 0 -11 79 -90 85 -85 7 8 -67 146 -124
229 -102 151 -287 322 -414 385 -100 50 -140 54 -197 21 -69 -39 -110 -31
-110 22 0 24 60 92 81 92 5 0 30 10 55 21 41 20 57 21 167 16 102 -4 132 -9
187 -32 81 -34 112 -30 229 29 86 44 172 79 266 108 97 31 366 73 528 83 54 4
142 15 195 26 53 12 133 24 177 28 44 5 136 16 204 26 100 14 134 15 174 6 26
-6 63 -11 80 -10 l32 1 -35 12 c-19 6 -45 17 -57 23 -29 17 -137 22 -258 13z"/>
<path d="M4393 5178 c-66 -68 -113 -139 -113 -171 0 -7 19 -56 42 -108 l42
-94 0 -165 c2 -471 -45 -559 -316 -590 -69 -8 -100 -7 -155 5 -37 9 -103 21
-145 27 l-76 11 -87 -44 c-47 -24 -110 -65 -138 -92 l-52 -47 40 6 c53 9 131
45 179 83 45 36 81 48 99 33 7 -6 40 -16 72 -21 33 -6 84 -16 113 -21 53 -11
198 -2 292 19 144 31 210 115 210 265 0 34 4 66 10 72 5 5 13 110 16 236 l6
227 -31 68 c-18 37 -48 84 -67 104 l-34 35 65 58 c76 67 111 110 120 149 12
46 -15 33 -92 -45z"/>
<path d="M4557 5208 c9 -48 26 -78 77 -135 25 -28 46 -55 46 -60 0 -6 -9 -18
-21 -29 -35 -32 -76 -100 -101 -166 -19 -53 -23 -81 -22 -173 2 -137 21 -378
33 -425 6 -19 12 -47 16 -62 13 -68 104 -126 236 -152 109 -21 237 -28 294
-16 28 6 77 15 110 21 33 5 70 14 83 21 24 13 36 8 127 -51 63 -41 182 -88
193 -76 16 16 -154 133 -243 167 -52 19 -64 21 -119 10 -249 -45 -237 -44
-326 -32 -112 15 -197 43 -242 80 -65 54 -101 219 -102 465 l-1 160 58 114
c58 116 66 149 45 198 -12 26 -73 115 -107 155 -25 29 -41 23 -34 -14z"/>
<path d="M3160 4820 c-78 -14 -153 -64 -176 -118 -18 -42 -21 -124 -5 -165 6
-16 11 -40 11 -53 0 -37 75 -217 140 -336 23 -42 31 -57 68 -133 22 -44 52
-107 66 -140 15 -33 31 -67 36 -75 5 -8 25 -49 46 -90 20 -41 53 -99 72 -128
45 -68 39 -82 -38 -84 -33 -1 -67 -2 -76 -2 -18 -1 -22 5 -110 189 -37 77 -77
154 -90 172 -13 17 -24 34 -24 38 0 3 -12 24 -27 48 -14 23 -38 60 -52 82 -14
22 -37 54 -52 70 -15 17 -49 55 -75 85 -67 78 -199 194 -265 234 -124 74 -304
103 -394 61 -152 -69 -199 -94 -270 -143 -44 -31 -89 -67 -100 -81 -11 -14
-32 -38 -47 -53 -16 -16 -28 -33 -28 -37 0 -5 -7 -12 -16 -15 -8 -3 -12 -10
-9 -16 7 -11 63 23 78 47 4 7 12 13 18 13 5 0 37 22 72 49 63 49 74 55 182
109 88 44 123 57 192 72 113 23 244 -23 381 -133 81 -66 238 -239 295 -325 64
-97 197 -337 197 -355 0 -9 5 -19 10 -22 14 -9 12 -71 -2 -82 -7 -6 -38 -16
-68 -23 -81 -18 -168 -49 -225 -80 -83 -45 -98 -45 -270 -10 -22 4 -77 21
-121 38 -183 68 -418 81 -646 36 -175 -34 -321 -102 -454 -211 -23 -18 -44
-33 -48 -33 -16 0 -167 -119 -240 -189 -191 -184 -266 -340 -266 -550 0 -125
16 -198 66 -297 44 -89 108 -162 246 -279 157 -135 268 -187 394 -187 97 -1
155 24 213 89 54 61 69 112 56 195 -9 59 -86 212 -137 275 -226 276 -258 318
-289 387 -10 22 -19 55 -19 71 0 53 44 127 121 202 139 136 211 180 319 198
25 4 79 16 120 27 161 43 253 53 368 40 92 -10 111 -16 142 -40 37 -31 90
-123 90 -159 0 -11 -12 -54 -26 -95 -14 -40 -28 -83 -31 -95 -3 -12 -11 -28
-19 -34 -8 -6 -14 -22 -14 -34 0 -12 -6 -40 -14 -61 -7 -22 -12 -59 -11 -84 5
-78 24 -200 35 -220 5 -10 10 -28 10 -39 0 -19 48 -135 71 -171 5 -8 13 -24
18 -35 40 -90 239 -320 351 -405 43 -33 82 -60 85 -60 4 0 21 -11 38 -24 30
-23 176 -96 192 -96 10 0 259 -121 265 -129 3 -4 18 -14 33 -24 15 -10 74 -63
131 -118 61 -58 107 -95 111 -89 7 11 -30 96 -46 106 -12 7 -12 44 1 44 18 0
74 -34 122 -73 52 -43 104 -133 124 -216 41 -172 -13 -296 -168 -387 -43 -25
-78 -49 -78 -54 0 -12 62 -21 97 -14 72 14 191 143 209 224 3 14 10 42 16 63
9 31 8 60 -5 143 -9 57 -21 112 -26 121 -6 10 -18 36 -28 57 -39 90 -182 198
-398 301 -106 51 -110 52 -195 85 -116 46 -135 54 -150 64 -8 6 -31 20 -50 31
-19 10 -39 23 -45 27 -5 5 -41 31 -78 59 -106 78 -209 184 -308 314 -42 56
-169 259 -169 271 0 3 -6 20 -14 37 -59 138 -67 308 -20 443 54 158 129 279
257 416 113 121 247 170 507 188 69 5 150 11 180 15 64 8 226 -9 273 -29 17
-8 52 -22 77 -32 58 -24 137 -82 180 -135 19 -23 43 -50 53 -62 9 -11 17 -33
17 -49 0 -30 14 -38 24 -12 25 66 -50 187 -168 268 -86 59 -252 115 -344 116
-63 0 -98 23 -123 78 -12 26 -32 69 -45 96 -28 58 -57 153 -50 165 3 4 -8 18
-25 30 -20 15 -56 76 -116 194 -148 292 -179 372 -189 480 -5 65 -4 75 18 106
46 68 100 90 223 91 50 0 161 -17 200 -31 6 -2 10 1 10 6 1 16 -28 45 -45 45
-9 0 -25 7 -38 15 -20 15 -48 19 -167 29 -22 2 -60 0 -85 -4z m-865 -1405 c71
-7 188 -45 265 -86 54 -29 57 -29 93 -14 40 17 113 20 122 6 3 -5 -28 -43 -68
-83 -40 -40 -83 -95 -96 -121 -27 -55 -46 -77 -68 -77 -13 0 -15 10 -9 68 3
37 3 72 -2 79 -4 7 -30 24 -57 38 -75 40 -229 57 -377 40 -62 -7 -124 -17
-138 -23 -30 -12 -145 -38 -213 -48 -26 -3 -50 -10 -53 -15 -3 -5 -13 -9 -23
-9 -33 0 -266 -202 -327 -284 -31 -43 -53 -94 -61 -142 -5 -30 16 -87 49 -139
28 -42 112 -150 120 -153 4 -2 8 -8 8 -14 0 -8 60 -82 154 -188 26 -29 86
-126 86 -139 0 -5 7 -14 15 -21 8 -7 17 -27 21 -46 3 -19 10 -37 15 -40 13 -8
11 -88 -4 -116 -16 -32 -75 -87 -105 -99 -66 -26 -268 5 -303 47 -6 8 -16 14
-21 14 -10 0 -76 49 -108 80 -9 8 -36 31 -60 50 -84 65 -175 173 -212 250 -50
104 -66 297 -33 400 38 121 111 235 216 338 59 56 185 160 209 170 8 4 49 32
90 63 134 100 276 179 320 179 22 0 59 7 82 15 92 31 285 39 473 20z"/>
<path d="M1139 2543 c-46 -51 -59 -80 -59 -135 0 -65 15 -107 59 -176 60 -94
171 -158 292 -169 89 -9 115 35 62 106 -16 20 -32 43 -38 52 -45 70 -95 146
-103 154 -5 6 -26 35 -47 65 -50 73 -105 130 -125 130 -9 0 -28 -12 -41 -27z
m118 -150 c52 -56 123 -178 123 -212 0 -21 -3 -23 -35 -18 -82 13 -185 134
-185 216 0 74 36 79 97 14z"/>
<path d="M5683 4819 c-47 -4 -92 -14 -105 -23 -12 -9 -29 -16 -38 -16 -20 -1
-76 -47 -67 -56 3 -4 32 1 63 11 84 26 286 27 334 1 83 -44 115 -101 105 -185
-10 -85 -47 -194 -114 -334 -34 -70 -61 -130 -61 -133 0 -9 -92 -168 -109
-187 -8 -10 -21 -15 -29 -12 -8 3 -16 -3 -19 -14 -3 -13 -21 -22 -61 -31 -88
-19 -142 -39 -196 -72 l-49 -30 -36 21 c-54 32 -191 96 -234 110 -48 16 -206
16 -254 0 -132 -42 -178 -76 -231 -169 -36 -64 -37 -67 -37 -170 0 -76 5 -113
16 -135 9 -16 24 -48 33 -70 10 -22 26 -57 37 -77 26 -50 24 -60 -12 -99 -43
-46 -87 -125 -94 -171 -8 -48 -41 -70 -62 -42 -7 10 -13 25 -13 35 0 23 -35
100 -57 124 -17 20 -52 68 -66 91 -3 6 4 33 17 60 13 27 32 67 41 89 9 22 22
51 28 64 7 14 12 68 11 130 0 108 -1 110 -51 206 -48 91 -158 143 -308 146
-106 2 -136 -7 -288 -85 -107 -55 -109 -55 -135 -38 -15 9 -29 20 -32 23 -9
12 -174 69 -199 69 -20 0 -11 -22 16 -44 72 -56 216 -111 268 -103 18 3 57 17
87 30 162 76 197 87 265 87 127 0 238 -62 290 -164 23 -43 27 -63 27 -131 -1
-69 -7 -95 -43 -190 -50 -129 -50 -143 9 -262 22 -45 40 -84 40 -87 0 -11 -27
-6 -140 30 -155 48 -161 51 -154 69 5 11 -1 15 -20 15 -14 0 -55 16 -91 36
-62 34 -72 36 -154 37 -96 0 -117 -7 -201 -73 -56 -43 -55 -42 -120 -120 -104
-124 -187 -247 -196 -290 -3 -14 -10 -33 -15 -43 -30 -54 -46 -236 -29 -322
40 -199 107 -298 350 -509 58 -50 114 -99 125 -109 25 -23 50 -43 140 -108 86
-63 233 -205 287 -277 61 -82 115 -196 144 -307 13 -49 19 -103 18 -180 0 -96
-4 -120 -28 -185 -100 -265 -290 -396 -433 -299 -51 34 -65 49 -128 137 -46
63 -65 77 -64 45 2 -63 76 -169 156 -224 41 -28 59 -33 123 -37 70 -4 81 -2
140 28 36 18 85 50 109 72 25 21 48 35 52 31 4 -5 24 -39 44 -78 21 -38 56
-104 78 -145 22 -41 48 -90 56 -107 22 -47 31 -41 31 21 0 44 -8 69 -41 133
-22 43 -56 94 -75 113 -46 48 -44 71 11 105 59 38 105 103 105 149 0 20 -3 36
-7 36 -4 0 -29 -21 -55 -47 -38 -37 -50 -45 -60 -35 -10 10 -10 17 0 33 38 60
53 291 28 421 -49 255 -197 455 -516 696 -181 137 -385 333 -449 432 -63 97
-76 151 -75 305 1 114 4 138 26 195 33 85 76 157 153 255 148 190 274 257 389
207 25 -12 46 -25 46 -30 0 -13 -41 -47 -80 -67 -45 -23 -139 -119 -173 -177
-83 -141 -103 -310 -53 -443 37 -97 94 -190 166 -269 33 -36 60 -70 60 -75 0
-19 260 -270 345 -334 104 -78 212 -134 228 -118 7 7 4 13 -9 17 -10 4 -21 10
-24 13 -3 3 -21 17 -40 30 -19 13 -42 30 -50 37 -195 170 -267 240 -345 334
-20 25 -56 68 -80 95 -25 28 -56 64 -70 80 -92 107 -159 257 -157 350 2 74 45
220 73 245 3 3 15 21 26 40 32 52 91 104 157 140 53 28 68 31 150 32 50 1 100
-3 111 -9 42 -22 116 -53 125 -53 26 0 158 -131 172 -171 13 -38 34 -37 51 4
51 120 246 232 404 229 180 -2 349 -158 392 -360 38 -179 -19 -309 -244 -557
-40 -44 -95 -107 -122 -140 -27 -33 -90 -96 -139 -140 -48 -44 -98 -88 -109
-98 -11 -10 -48 -39 -83 -65 -34 -25 -58 -50 -54 -54 12 -12 135 55 216 117
119 91 392 382 478 508 22 33 57 94 76 136 31 66 36 89 40 170 5 105 -9 172
-59 279 -38 82 -99 146 -206 218 -81 54 -84 58 -62 67 13 5 32 13 42 19 29 15
138 11 179 -6 88 -37 232 -189 316 -332 53 -91 68 -138 83 -250 15 -116 0
-216 -47 -314 -58 -122 -247 -309 -580 -575 -146 -116 -266 -249 -319 -355
-97 -192 -125 -362 -89 -550 9 -47 19 -102 21 -123 5 -36 4 -38 -13 -29 -11 6
-35 26 -53 46 -43 44 -51 45 -51 5 0 -55 60 -138 122 -170 21 -11 41 -26 44
-34 4 -9 -11 -32 -34 -57 -40 -41 -99 -149 -121 -219 -15 -47 -14 -92 1 -87 6
2 48 74 92 160 45 86 87 163 95 172 21 25 50 19 92 -19 68 -61 114 -79 204
-80 77 0 83 2 138 38 63 42 134 124 143 165 3 15 10 37 16 49 6 12 7 30 3 40
-8 17 -8 17 -12 -2 -3 -11 -10 -24 -17 -30 -6 -5 -33 -38 -59 -72 -114 -150
-217 -180 -335 -98 -8 6 -41 37 -72 70 -60 61 -113 157 -145 265 -19 61 -24
262 -7 283 5 7 13 32 17 56 4 25 20 73 36 107 16 34 29 67 29 73 0 6 5 11 10
11 6 0 10 6 10 14 0 18 87 130 151 195 30 29 119 105 198 168 78 63 151 122
160 132 9 9 37 33 61 55 174 151 340 346 340 399 0 10 6 30 14 45 13 25 34
198 28 232 -1 8 -7 44 -12 79 -13 79 -59 216 -79 231 -3 3 -15 22 -26 42 -22
39 -101 139 -170 212 -22 24 -70 64 -108 90 l-67 46 -98 0 c-92 0 -102 -2
-167 -35 -88 -45 -110 -44 -109 7 1 28 11 50 39 84 54 66 81 91 105 99 11 3
20 10 20 14 0 11 92 55 169 81 83 28 221 44 296 35 33 -4 114 -11 180 -15 165
-10 319 -52 375 -100 13 -11 27 -20 31 -20 15 0 151 -144 208 -220 128 -173
156 -249 156 -430 0 -176 -37 -284 -156 -463 -78 -117 -122 -169 -259 -307
-117 -119 -273 -233 -370 -273 -25 -10 -58 -25 -73 -33 -16 -8 -33 -14 -38
-14 -8 0 -144 -60 -179 -79 -8 -4 -46 -25 -85 -45 -38 -21 -84 -49 -102 -62
-17 -13 -35 -24 -40 -24 -16 0 -129 -116 -147 -150 -48 -96 -61 -152 -61 -265
0 -98 3 -116 27 -165 33 -71 99 -145 151 -170 38 -19 147 -29 147 -14 0 10
-30 32 -82 59 -64 34 -111 77 -145 133 -26 44 -28 54 -28 162 0 109 2 118 32
180 36 73 72 115 137 160 69 47 79 41 50 -30 -45 -110 -31 -108 99 20 117 115
216 180 382 250 81 34 240 118 290 153 76 53 241 212 304 291 68 86 124 180
164 277 61 148 74 207 84 359 4 77 2 91 -22 145 -37 83 -66 172 -74 225 -5 39
-9 45 -33 48 -20 2 -32 15 -53 56 -28 55 -105 143 -164 188 -19 15 -31 30 -27
37 10 16 77 14 129 -4 44 -15 45 -14 123 22 113 52 172 65 386 89 66 8 303
-13 333 -29 11 -6 41 -11 67 -13 33 -1 61 -11 90 -31 24 -16 51 -32 60 -36 22
-8 147 -90 173 -114 23 -20 49 -39 145 -104 77 -52 257 -229 296 -291 51 -80
104 -195 112 -244 31 -176 -21 -341 -145 -470 -34 -36 -78 -78 -97 -92 -19
-15 -68 -53 -108 -84 -41 -32 -105 -74 -144 -95 -66 -36 -73 -38 -169 -38 -93
0 -103 2 -144 29 -77 49 -91 71 -91 137 0 46 6 70 30 114 41 75 80 138 94 150
6 6 24 26 40 45 16 19 52 60 80 91 95 103 215 260 237 309 18 40 5 132 -26
185 -47 80 -270 286 -355 329 -19 9 -55 19 -80 22 -46 5 -53 7 -205 46 -75 19
-116 23 -240 23 -131 0 -159 -3 -217 -23 -36 -13 -78 -34 -93 -48 -23 -21 -26
-30 -20 -57 4 -18 11 -48 15 -67 l7 -35 20 45 c38 83 81 106 219 119 63 5 118
4 175 -5 122 -18 327 -62 379 -82 87 -32 309 -241 338 -317 12 -32 16 -63 14
-106 -2 -30 -171 -261 -227 -310 -59 -52 -176 -216 -207 -291 -26 -61 -30 -81
-26 -142 3 -61 7 -76 33 -108 113 -142 303 -156 508 -36 90 53 282 213 333
280 53 68 98 159 118 235 20 75 20 220 2 290 -55 204 -227 417 -476 586 -30
20 -80 55 -110 77 -93 68 -232 149 -285 165 -93 28 -285 55 -393 55 -131 0
-281 -27 -420 -75 -58 -20 -123 -35 -150 -35 -26 -1 -65 -7 -86 -15 -34 -12
-44 -12 -80 2 -23 9 -54 25 -69 36 -16 11 -81 38 -145 61 -108 38 -117 43
-120 68 -8 67 221 427 396 625 132 149 306 261 408 264 118 3 231 -48 429
-195 44 -33 92 -71 108 -85 19 -18 30 -22 38 -14 17 17 -141 175 -236 238 -78
51 -209 118 -251 128 -54 12 -169 -10 -247 -47 -81 -39 -211 -143 -274 -219
-20 -23 -38 -44 -42 -47 -10 -8 -94 -110 -111 -136 -8 -12 -43 -63 -77 -113
-35 -50 -72 -108 -83 -129 -12 -20 -37 -64 -56 -97 -19 -33 -51 -93 -71 -132
-19 -40 -41 -74 -47 -74 -37 -4 -143 4 -150 12 -11 10 10 54 60 124 28 39 76
128 226 415 59 114 125 260 146 326 42 129 47 152 47 224 0 67 -3 79 -30 117
-41 58 -165 117 -235 111 -8 0 -52 -4 -97 -9z m-52 -1022 c-6 -6 -11 -20 -11
-32 0 -12 -4 -25 -9 -30 -5 -6 -28 -47 -51 -93 -22 -45 -51 -89 -63 -97 -13
-8 -59 -19 -102 -25 -161 -21 -290 -70 -401 -152 -95 -71 -149 -180 -118 -239
8 -16 14 -35 14 -43 0 -19 -42 -41 -90 -49 -19 -3 -76 -21 -125 -41 -49 -19
-91 -33 -93 -31 -2 2 20 46 49 97 49 83 54 98 53 148 -1 35 -13 84 -32 135
-17 44 -36 104 -42 133 -37 169 97 321 298 339 77 7 142 -8 247 -57 125 -59
163 -67 227 -50 54 13 185 73 229 103 25 18 41 5 20 -16z"/>
<path d="M3270 3210 c-14 -4 -38 -8 -55 -9 -16 -1 -43 -8 -59 -16 -15 -8 -34
-15 -41 -15 -16 0 -106 -57 -154 -97 -88 -72 -172 -232 -190 -359 -11 -78 3
-216 25 -251 8 -12 14 -28 14 -34 0 -19 49 -119 88 -179 47 -73 120 -148 213
-220 164 -127 266 -164 173 -64 -139 149 -204 314 -204 515 0 83 21 201 46
256 8 17 14 35 14 40 0 14 32 73 74 136 39 59 142 159 193 187 171 96 172 112
8 115 -66 2 -131 -1 -145 -5z m20 -92 c0 -7 -30 -50 -68 -95 -114 -138 -186
-314 -199 -490 -3 -39 0 -122 7 -183 6 -61 9 -114 6 -118 -12 -11 -61 34 -97
89 -158 240 -138 493 56 685 55 54 87 77 136 97 69 27 159 36 159 15z"/>
<path d="M5455 3211 c-8 -8 -5 -41 3 -41 15 0 164 -99 203 -135 76 -70 169
-215 184 -287 4 -18 11 -37 15 -43 4 -5 15 -44 24 -85 26 -110 11 -310 -29
-397 -8 -18 -23 -50 -32 -70 -26 -56 -76 -127 -122 -175 -38 -38 -52 -68 -33
-68 12 0 83 39 134 75 162 111 261 220 329 362 11 23 24 45 29 48 6 3 10 15
10 27 0 11 6 32 14 46 83 160 16 413 -154 582 -67 67 -99 89 -190 129 -51 23
-139 35 -258 36 -68 0 -125 -1 -127 -4z m392 -113 c160 -79 283 -254 299 -427
8 -86 -21 -198 -79 -299 -43 -76 -118 -155 -125 -133 -2 7 1 72 7 144 11 134
7 173 -28 317 -23 93 -82 215 -141 295 -59 79 -73 104 -66 120 9 24 63 18 133
-17z"/>
<path d="M3995 2871 c-37 -9 -103 -50 -131 -82 -44 -49 -95 -192 -93 -263 1
-48 30 -138 47 -144 8 -2 12 14 12 54 0 128 61 272 143 337 37 29 84 53 140
71 9 3 17 9 17 15 0 19 -75 26 -135 12z"/>
<path d="M4862 2872 c-28 -8 -30 -26 -5 -31 81 -16 180 -96 218 -177 44 -92
47 -107 46 -197 -1 -98 8 -107 44 -46 30 50 28 173 -4 256 -27 72 -87 145
-141 173 -42 21 -123 33 -158 22z"/>
<path d="M6630 2748 c0 -7 7 -22 15 -32 8 -11 15 -28 15 -38 0 -10 4 -26 9
-36 15 -26 39 -111 51 -177 21 -115 22 -128 12 -164 -6 -20 -15 -56 -20 -81
-35 -160 -132 -316 -283 -452 -67 -62 -69 -64 -75 -123 -17 -155 -167 -329
-351 -404 -17 -7 -34 -19 -37 -27 -9 -24 82 -5 158 33 74 37 161 112 207 179
15 23 47 89 70 148 38 96 51 117 124 199 128 145 192 252 236 397 34 114 32
276 -5 385 -27 79 -63 149 -94 186 -19 22 -32 25 -32 7z"/>
<path d="M2305 2718 c-40 -47 -73 -123 -97 -218 -17 -69 -20 -103 -15 -185 8
-130 26 -199 84 -314 41 -81 177 -264 212 -286 14 -8 61 -100 61 -119 0 -7 18
-50 40 -94 32 -64 57 -96 121 -156 86 -81 153 -119 247 -142 68 -16 128 -18
75 -3 -18 5 -33 14 -33 19 0 5 -10 12 -22 16 -46 14 -163 90 -219 142 -69 64
-125 144 -134 195 -4 20 -11 40 -16 43 -5 3 -9 27 -9 53 0 42 -4 51 -26 66
-56 36 -170 165 -221 250 -36 59 -78 168 -103 266 -25 98 7 264 84 442 28 66
15 78 -29 25z"/>
<path d="M4136 2736 c-15 -9 -34 -16 -41 -16 -8 0 -35 -24 -62 -54 -105 -118
-107 -256 -9 -454 51 -103 59 -117 66 -122 4 -3 27 -36 52 -75 25 -38 54 -80
64 -93 11 -12 33 -40 49 -62 51 -68 216 -230 235 -230 3 0 42 36 88 81 69 67
108 114 190 224 83 113 176 281 213 384 26 74 27 217 1 264 -50 91 -71 114
-136 146 -43 21 -58 23 -125 18 -86 -6 -159 -34 -189 -72 -25 -32 -54 -32 -89
1 -46 43 -110 66 -198 71 -60 3 -87 0 -109 -11z m86 -78 c3 -7 -12 -34 -33
-62 -44 -57 -64 -121 -56 -173 17 -104 129 -253 227 -306 29 -15 55 -25 58
-23 2 3 -23 32 -57 65 -74 75 -131 150 -166 218 -23 48 -25 57 -14 95 6 24 20
55 31 71 24 33 87 67 125 67 34 0 103 -31 122 -53 18 -23 23 -22 78 16 90 61
191 36 233 -56 33 -75 33 -81 -6 -154 -45 -85 -72 -121 -148 -201 -32 -34 -57
-65 -54 -68 11 -10 92 48 148 107 57 58 113 158 125 221 9 47 -9 106 -50 168
-38 56 -41 65 -25 75 21 13 79 -17 122 -63 38 -41 46 -56 51 -102 16 -135 -84
-355 -288 -635 -84 -115 -139 -175 -162 -175 -18 0 -65 49 -137 145 -97 128
-266 386 -266 406 0 5 -12 33 -26 62 -21 42 -26 68 -27 137 -1 77 2 91 26 132
38 66 77 91 149 97 9 0 18 -4 20 -11z"/>
<path d="M4330 2475 c-35 -37 -31 -90 14 -163 39 -65 125 -162 143 -162 35 0
183 216 183 268 0 13 -13 37 -29 53 -33 32 -75 38 -107 14 -24 -19 -74 -19
-98 0 -31 23 -79 19 -106 -10z m214 -45 c38 -14 43 -63 13 -128 -27 -58 -54
-92 -72 -92 -14 0 -54 49 -79 97 -20 40 -21 97 0 117 18 18 98 22 138 6z"/>
<path d="M7770 2528 c-59 -59 -197 -243 -246 -329 -6 -11 -21 -30 -33 -43 -46
-49 -18 -90 60 -88 153 3 313 119 363 262 19 55 20 82 2 139 -12 43 -65 101
-92 101 -6 0 -31 -19 -54 -42z m72 -113 c34 -74 -98 -244 -189 -245 -29 0 -33
3 -33 26 0 35 42 106 108 182 60 70 94 81 114 37z"/>
<path d="M2816 1573 c-34 -35 63 -177 168 -247 72 -48 129 -49 76 -1 -11 10
-20 24 -20 32 0 32 91 5 230 -69 47 -25 135 -71 195 -103 61 -32 128 -62 150
-66 22 -4 51 -11 65 -15 l25 -7 -25 26 c-14 15 -29 27 -34 27 -5 0 -17 6 -25
14 -9 8 -45 29 -81 48 -36 18 -83 45 -106 60 -22 14 -89 49 -150 78 -60 29
-125 61 -144 70 -19 10 -77 37 -128 59 -51 22 -115 53 -142 70 -26 16 -51 27
-54 24z"/>
<path d="M6098 1555 c-20 -13 -72 -41 -115 -60 -150 -69 -209 -97 -298 -142
-96 -49 -299 -167 -326 -190 -8 -7 -21 -13 -27 -13 -6 0 -24 -12 -39 -26 l-28
-27 45 7 c25 4 62 16 83 26 21 11 41 20 46 20 4 0 48 23 97 51 140 81 346 179
377 179 l28 0 -22 -40 c-12 -22 -19 -43 -16 -47 9 -9 70 20 113 55 86 67 175
232 126 232 -4 0 -24 -11 -44 -25z"/>
<path d="M4811 1002 c-58 -154 14 -399 151 -516 54 -46 80 -53 112 -29 35 25
29 42 -22 68 -66 33 -118 91 -161 179 -46 93 -72 228 -54 269 6 13 8 39 4 58
l-7 34 -23 -63z"/>
<path d="M4140 1031 c0 -11 4 -22 9 -26 23 -14 -15 -229 -55 -310 -35 -71
-106 -148 -163 -177 -51 -26 -53 -35 -18 -62 36 -27 70 -14 132 48 92 95 145
231 145 375 0 72 -4 98 -21 131 -24 45 -29 49 -29 21z"/>
<path d="M4451 408 c-20 -25 -22 -33 -13 -47 7 -9 17 -28 23 -43 17 -42 36
-42 64 2 30 47 31 67 6 98 -26 30 -51 27 -80 -10z"/>
</g>
</svg>
